<?xml version="1.0" standalone="no"?>
<!DOCTYPE svg PUBLIC "-//W3C//DTD SVG 20010904//EN"
 "http://www.w3.org/TR/2001/REC-SVG-20010904/DTD/svg10.dtd">
<svg version="1.0" xmlns="http://www.w3.org/2000/svg"
 width="70.000000pt" height="70.000000pt" viewBox="0 0 70.000000 70.000000"
 preserveAspectRatio="xMidYMid meet">
<metadata>
Created by potrace 1.14, written by Peter Selinger 2001-2017
</metadata>
<g transform="translate(0.000000,70.000000) scale(0.100000,-0.100000)"
fill="#000000" stroke="none">
<path d="M430 686 c-19 -5 -37 -12 -40 -15 -3 -3 -11 -7 -19 -9 -20 -4 -93
-56 -117 -83 -33 -38 -61 -90 -75 -139 -13 -49 -19 -150 -8 -150 4 0 7 -11 7
-24 -1 -35 56 -128 103 -171 58 -52 142 -89 204 -90 48 0 50 1 47 25 -2 14 -5
26 -5 26 -1 1 -24 5 -52 9 -82 10 -160 63 -208 140 -87 142 -31 321 125 401
44 22 88 32 88 18 0 -15 -22 -44 -35 -44 -26 0 -100 -52 -126 -88 -54 -77 -63
-161 -27 -240 23 -49 82 -112 105 -112 7 0 13 -4 13 -9 0 -10 108 -36 116 -28
3 2 5 37 7 77 1 56 -2 75 -13 80 -8 4 -28 14 -44 21 -70 33 -54 130 24 146 27
5 42 32 33 60 -5 15 -69 0 -102 -25 -33 -23 -61 -78 -61 -117 0 -39 33 -92 70
-113 28 -16 48 -47 37 -58 -8 -9 -81 32 -102 58 -34 40 -45 66 -45 112 0 97
62 168 168 191 17 3 32 12 33 18 1 7 1 41 2 77 l0 65 -34 1 c-19 0 -50 -4 -69
-10z"/>
</g>
</svg>
